<svg xmlns="http://www.w3.org/2000/svg" viewBox="0 0 1200 880" width="1200" height="880">
  <style>
    text { font-family: 'Helvetica Neue', Helvetica, Arial, 'PingFang SC', 'Microsoft YaHei', sans-serif; }
    .title { font-size: 23px; font-weight: 700; fill: #111827; }
    .subtitle { font-size: 13px; fill: #6b7280; }
    .lane { font-size: 11px; font-weight: 700; fill: #374151; letter-spacing: 0.06em; }
    .node-title { font-size: 14px; font-weight: 700; fill: #111827; }
    .node-sub { font-size: 12px; fill: #4b5563; }
    .small { font-size: 11px; fill: #6b7280; }
    .label { font-size: 11px; font-weight: 600; fill: #374151; }
  </style>
  <defs>
    <marker id="arrow-blue" markerWidth="10" markerHeight="7" refX="9" refY="3.5" orient="auto">
      <polygon points="0 0, 10 3.5, 0 7" fill="#2563eb"/>
    </marker>
    <marker id="arrow-orange" markerWidth="10" markerHeight="7" refX="9" refY="3.5" orient="auto">
      <polygon points="0 0, 10 3.5, 0 7" fill="#ea580c"/>
    </marker>
    <marker id="arrow-green" markerWidth="10" markerHeight="7" refX="9" refY="3.5" orient="auto">
      <polygon points="0 0, 10 3.5, 0 7" fill="#16a34a"/>
    </marker>
    <marker id="arrow-purple" markerWidth="10" markerHeight="7" refX="9" refY="3.5" orient="auto">
      <polygon points="0 0, 10 3.5, 0 7" fill="#9333ea"/>
    </marker>
    <marker id="arrow-gray" markerWidth="10" markerHeight="7" refX="9" refY="3.5" orient="auto">
      <polygon points="0 0, 10 3.5, 0 7" fill="#6b7280"/>
    </marker>
    <filter id="shadow" x="-20%" y="-20%" width="140%" height="140%">
      <feDropShadow dx="0" dy="3" stdDeviation="4" flood-color="#000000" flood-opacity="0.11"/>
    </filter>
  </defs>
  <rect width="1200" height="880" fill="#ffffff"/>
  <text x="42" y="44" class="title">SAP Sales Invoice + PayNow QR + UOB/SG Bank API Architecture</text>
  <text x="42" y="69" class="subtitle">How invoice QR generation, customer payment, bank callback, and SAP FI/AR reconciliation fit together.</text>
  <rect x="40" y="100" width="170" height="690" rx="8" fill="#f9fafb" stroke="#d1d5db" stroke-width="1.2" stroke-dasharray="7,5"/>
  <text x="54" y="122" class="lane">ACTORS</text>
  <rect x="240" y="100" width="230" height="690" rx="8" fill="#f9fafb" stroke="#d1d5db" stroke-width="1.2" stroke-dasharray="7,5"/>
  <text x="254" y="122" class="lane">SAP / ERP</text>
  <rect x="510" y="100" width="230" height="690" rx="8" fill="#f9fafb" stroke="#d1d5db" stroke-width="1.2" stroke-dasharray="7,5"/>
  <text x="524" y="122" class="lane">INTEGRATION</text>
  <rect x="780" y="100" width="230" height="690" rx="8" fill="#f9fafb" stroke="#d1d5db" stroke-width="1.2" stroke-dasharray="7,5"/>
  <text x="794" y="122" class="lane">BANK / PAYNOW</text>
  <rect x="1040" y="100" width="130" height="690" rx="8" fill="#f9fafb" stroke="#d1d5db" stroke-width="1.2" stroke-dasharray="7,5"/>
  <text x="1054" y="122" class="lane">CUSTOMER APP</text>
  <rect x="70" y="155" width="140" height="86" rx="8" fill="#eff6ff" stroke="#bfdbfe" stroke-width="1.5" filter="url(#shadow)"/>
  <text x="140.0" y="183" text-anchor="middle" class="node-title">Counter Sales</text>
  <text x="140.0" y="205" text-anchor="middle" class="node-sub">Create invoice</text>
  <text x="140.0" y="223" text-anchor="middle" class="small">staff uses SAP</text>
  <rect x="70" y="410" width="140" height="86" rx="8" fill="#fff7ed" stroke="#fed7aa" stroke-width="1.5" filter="url(#shadow)"/>
  <text x="140.0" y="438" text-anchor="middle" class="node-title">Customer</text>
  <text x="140.0" y="460" text-anchor="middle" class="node-sub">Receives invoice</text>
  <text x="140.0" y="478" text-anchor="middle" class="small">scans QR</text>
  <rect x="70" y="650" width="140" height="86" rx="8" fill="#f0fdf4" stroke="#bbf7d0" stroke-width="1.5" filter="url(#shadow)"/>
  <text x="140.0" y="678" text-anchor="middle" class="node-title">Finance AR</text>
  <text x="140.0" y="700" text-anchor="middle" class="node-sub">Reviews exceptions</text>
  <text x="140.0" y="718" text-anchor="middle" class="small">manual follow-up</text>
  <rect x="270" y="155" width="190" height="86" rx="8" fill="#eff6ff" stroke="#93c5fd" stroke-width="1.5" filter="url(#shadow)"/>
  <text x="365.0" y="183" text-anchor="middle" class="node-title">SAP Sales Invoice</text>
  <text x="365.0" y="205" text-anchor="middle" class="node-sub">Billing document</text>
  <text x="365.0" y="223" text-anchor="middle" class="small">invoice no, amount</text>
  <rect x="270" y="410" width="190" height="86" rx="8" fill="#faf5ff" stroke="#d8b4fe" stroke-width="1.5" filter="url(#shadow)"/>
  <text x="365.0" y="438" text-anchor="middle" class="node-title">Invoice Output</text>
  <text x="365.0" y="460" text-anchor="middle" class="node-sub">PDF / print form</text>
  <text x="365.0" y="478" text-anchor="middle" class="small">QR embedded</text>
  <rect x="270" y="650" width="190" height="86" rx="8" fill="#f0fdf4" stroke="#86efac" stroke-width="1.5" filter="url(#shadow)"/>
  <text x="365.0" y="678" text-anchor="middle" class="node-title">SAP FI/AR</text>
  <text x="365.0" y="700" text-anchor="middle" class="node-sub">Payment clearing</text>
  <text x="365.0" y="718" text-anchor="middle" class="small">paid / open items</text>
  <rect x="540" y="155" width="190" height="86" rx="8" fill="#ffffff" stroke="#d1d5db" stroke-width="1.5" filter="url(#shadow)"/>
  <text x="635.0" y="183" text-anchor="middle" class="node-title">Integration Service</text>
  <text x="635.0" y="205" text-anchor="middle" class="node-sub">API orchestration</text>
  <text x="635.0" y="223" text-anchor="middle" class="small">SAP + bank adapter</text>
  <rect x="540" y="300" width="190" height="86" rx="8" fill="#fef2f2" stroke="#fecaca" stroke-width="1.5" filter="url(#shadow)"/>
  <text x="635.0" y="328" text-anchor="middle" class="node-title">QR Generator</text>
  <text x="635.0" y="350" text-anchor="middle" class="node-sub">PayNow/SGQR payload</text>
  <text x="635.0" y="368" text-anchor="middle" class="small">amount + reference</text>
  <rect x="540" y="650" width="190" height="86" rx="8" fill="#f0fdfa" stroke="#99f6e4" stroke-width="1.5" filter="url(#shadow)"/>
  <text x="635.0" y="678" text-anchor="middle" class="node-title">Payment Matcher</text>
  <text x="635.0" y="700" text-anchor="middle" class="node-sub">Reconciliation logic</text>
  <text x="635.0" y="718" text-anchor="middle" class="small">invoice reference match</text>
  <rect x="810" y="155" width="190" height="86" rx="8" fill="#fff7ed" stroke="#fdba74" stroke-width="1.5" filter="url(#shadow)"/>
  <text x="905.0" y="183" text-anchor="middle" class="node-title">UOB / SG Bank API</text>
  <text x="905.0" y="205" text-anchor="middle" class="node-sub">Corporate banking</text>
  <text x="905.0" y="223" text-anchor="middle" class="small">PayNow services</text>
  <rect x="810" y="410" width="190" height="86" rx="8" fill="#f0fdf4" stroke="#86efac" stroke-width="1.5" filter="url(#shadow)"/>
  <text x="905.0" y="438" text-anchor="middle" class="node-title">PayNow / FAST</text>
  <text x="905.0" y="460" text-anchor="middle" class="node-sub">Instant transfer</text>
  <text x="905.0" y="478" text-anchor="middle" class="small">SGD payment rail</text>
  <rect x="810" y="650" width="190" height="86" rx="8" fill="#faf5ff" stroke="#d8b4fe" stroke-width="1.5" filter="url(#shadow)"/>
  <text x="905.0" y="678" text-anchor="middle" class="node-title">Credit Notification</text>
  <text x="905.0" y="700" text-anchor="middle" class="node-sub">Webhook / API event</text>
  <text x="905.0" y="718" text-anchor="middle" class="small">payment confirmation</text>
  <rect x="1055" y="335" width="105" height="86" rx="8" fill="#eff6ff" stroke="#bfdbfe" stroke-width="1.5" filter="url(#shadow)"/>
  <text x="1107.5" y="363" text-anchor="middle" class="node-title">Bank App</text>
  <text x="1107.5" y="385" text-anchor="middle" class="node-sub">Scan and pay</text>
  <text x="1107.5" y="403" text-anchor="middle" class="small">PayNow QR</text>
  <rect x="1055" y="510" width="105" height="86" rx="8" fill="#f0fdf4" stroke="#86efac" stroke-width="1.5" filter="url(#shadow)"/>
  <text x="1107.5" y="538" text-anchor="middle" class="node-title">Payment</text>
  <text x="1107.5" y="560" text-anchor="middle" class="node-sub">Confirm</text>
  <text x="1107.5" y="578" text-anchor="middle" class="small">SGD transfer</text>
  <ellipse cx="635" cy="775" rx="78" ry="14" fill="#f9fafb" stroke="#9ca3af" stroke-width="1.5"/>
  <rect x="557" y="775" width="156" height="38" fill="#f9fafb" stroke="none"/>
  <line x1="557" y1="775" x2="557" y2="813" stroke="#9ca3af" stroke-width="1.5"/>
  <line x1="713" y1="775" x2="713" y2="813" stroke="#9ca3af" stroke-width="1.5"/>
  <ellipse cx="635" cy="813" rx="78" ry="14" fill="#f3f4f6" stroke="#9ca3af" stroke-width="1.5"/>
  <text x="635" y="793" text-anchor="middle" class="node-title">Audit / Logs</text>
  <text x="635" y="808" text-anchor="middle" class="small">API calls, callbacks</text>
  <path d="M 210 198 L 270 198" fill="none" stroke="#2563eb" stroke-width="2" marker-end="url(#arrow-blue)"/>
  <rect x="214" y="172" width="103.0" height="19" rx="4" fill="#ffffff" opacity="0.96"/>
  <text x="220" y="187" class="label">create invoice</text>
  <path d="M 460 198 L 540 198" fill="none" stroke="#2563eb" stroke-width="2" marker-end="url(#arrow-blue)"/>
  <rect x="474" y="172" width="90.0" height="19" rx="4" fill="#ffffff" opacity="0.96"/>
  <text x="480" y="187" class="label">invoice data</text>
  <path d="M 730 198 L 810 198" fill="none" stroke="#2563eb" stroke-width="2" marker-end="url(#arrow-blue)"/>
  <rect x="742" y="172" width="83.5" height="19" rx="4" fill="#ffffff" opacity="0.96"/>
  <text x="748" y="187" class="label">API request</text>
  <path d="M 810 230 L 730 318" fill="none" stroke="#2563eb" stroke-width="2" marker-end="url(#arrow-blue)"/>
  <rect x="738" y="253" width="77.0" height="19" rx="4" fill="#ffffff" opacity="0.96"/>
  <text x="744" y="268" class="label">bank rules</text>
  <path d="M 540 343 L 460 443" fill="none" stroke="#9333ea" stroke-width="2" marker-end="url(#arrow-purple)"/>
  <rect x="469" y="371" width="64.0" height="19" rx="4" fill="#ffffff" opacity="0.96"/>
  <text x="475" y="386" class="label">embed QR</text>
  <path d="M 270 453 L 210 453" fill="none" stroke="#2563eb" stroke-width="2" marker-end="url(#arrow-blue)"/>
  <rect x="214" y="426" width="83.5" height="19" rx="4" fill="#ffffff" opacity="0.96"/>
  <text x="220" y="441" class="label">invoice PDF</text>
  <path d="M 210 442 C 500 360 780 360 1055 378" fill="none" stroke="#2563eb" stroke-width="2" marker-end="url(#arrow-blue)"/>
  <rect x="604" y="337" width="58" height="19" rx="4" fill="#ffffff" opacity="0.96"/>
  <text x="610" y="352" class="label">scan QR</text>
  <path d="M 1108 421 L 1108 510" fill="none" stroke="#ea580c" stroke-width="2" marker-end="url(#arrow-orange)"/>
  <rect x="1113" y="456" width="58" height="19" rx="4" fill="#ffffff" opacity="0.96"/>
  <text x="1119" y="471" class="label">confirm</text>
  <path d="M 1055 553 L 1000 453" fill="none" stroke="#ea580c" stroke-width="2" marker-end="url(#arrow-orange)"/>
  <rect x="1000" y="497" width="103.0" height="19" rx="4" fill="#ffffff" opacity="0.96"/>
  <text x="1006" y="512" class="label">PayNow payment</text>
  <path d="M 905 496 L 905 650" fill="none" stroke="#6b7280" stroke-width="2" marker-end="url(#arrow-gray)" stroke-dasharray="5,4"/>
  <rect x="910" y="560" width="77.0" height="19" rx="4" fill="#ffffff" opacity="0.96"/>
  <text x="916" y="575" class="label">bank event</text>
  <path d="M 810 693 L 730 693" fill="none" stroke="#6b7280" stroke-width="2" marker-end="url(#arrow-gray)" stroke-dasharray="5,4"/>
  <rect x="742" y="667" width="64.0" height="19" rx="4" fill="#ffffff" opacity="0.96"/>
  <text x="748" y="682" class="label">callback</text>
  <path d="M 540 693 L 460 693" fill="none" stroke="#16a34a" stroke-width="2" marker-end="url(#arrow-green)"/>
  <rect x="474" y="667" width="96.5" height="19" rx="4" fill="#ffffff" opacity="0.96"/>
  <text x="480" y="682" class="label">clear invoice</text>
  <path d="M 270 693 L 210 693" fill="none" stroke="#16a34a" stroke-width="2" marker-end="url(#arrow-green)"/>
  <rect x="214" y="667" width="83.5" height="19" rx="4" fill="#ffffff" opacity="0.96"/>
  <text x="220" y="682" class="label">paid status</text>
  <path d="M 635 736 L 635 775" fill="none" stroke="#6b7280" stroke-width="2" marker-end="url(#arrow-gray)" stroke-dasharray="5,4"/>
  <rect x="640" y="747" width="70.5" height="19" rx="4" fill="#ffffff" opacity="0.96"/>
  <text x="646" y="762" class="label">write log</text>
  <path d="M 635 386 L 635 650" fill="none" stroke="#6b7280" stroke-width="2" marker-end="url(#arrow-gray)" stroke-dasharray="5,4"/>
  <rect x="640" y="533" width="109.5" height="19" rx="4" fill="#ffffff" opacity="0.96"/>
  <text x="646" y="548" class="label">transaction ref</text>
  <rect x="270" y="260" width="730" height="34" rx="6" fill="#f9fafb" stroke="#e5e7eb"/>
  <text x="286" y="282" class="small">Phase 1 focus: Counter Sales. Keep scope tight: invoice QR, payment confirmation, matching, and AR clearing.</text>
  <rect x="270" y="540" width="730" height="34" rx="6" fill="#fff7ed" stroke="#fed7aa"/>
  <text x="286" y="562" class="small">Risk areas: UOB onboarding, API security, callback validation, duplicate/partial payments, and SAP ABAP/output changes.</text>
  <g transform="translate(42,842)">
    <line x1="0" y1="9" x2="32" y2="9" stroke="#2563eb" stroke-width="2" marker-end="url(#arrow-blue)"/>
    <text x="42" y="13" class="small">main data/request</text>
    <line x1="215" y1="9" x2="247" y2="9" stroke="#9333ea" stroke-width="2" marker-end="url(#arrow-purple)"/>
    <text x="257" y="13" class="small">transform/embed</text>
    <line x1="430" y1="9" x2="462" y2="9" stroke="#ea580c" stroke-width="2" marker-end="url(#arrow-orange)"/>
    <text x="472" y="13" class="small">customer payment</text>
    <line x1="645" y1="9" x2="677" y2="9" stroke="#6b7280" stroke-width="2" marker-end="url(#arrow-gray)"/>
    <text x="687" y="13" class="small">async bank event</text>
    <line x1="860" y1="9" x2="892" y2="9" stroke="#16a34a" stroke-width="2" marker-end="url(#arrow-green)"/>
    <text x="902" y="13" class="small">SAP reconcile/update</text>
  </g>
</svg>